<svg aria-hidden="true" style="position: absolute; width: 0; height: 0; overflow: hidden;" version="1.1" xmlns="http://www.w3.org/2000/svg" xmlns:xlink="http://www.w3.org/1999/xlink">
<defs>
<symbol id="right-btn" viewBox="0 0 32 32">
<path fill="none" stroke="#fff" style="#fff" stroke-linejoin="miter" stroke-linecap="butt" stroke-miterlimit="4" stroke-width="0.7619" d="M6.857 0.381h18.286c3.577 0 6.476 2.9 6.476 6.476v18.286c0 3.577-2.899 6.476-6.476 6.476h-18.286c-3.577 0-6.476-2.899-6.476-6.476v-18.286c0-3.577 2.9-6.476 6.476-6.476z"></path>
<path fill="none" stroke="#fff" style="#fff" stroke-linejoin="round" stroke-linecap="round" stroke-miterlimit="4" stroke-width="0.7619" d="M13.714 20.571l4.571-4.571-4.571-4.571"></path>
</symbol>

<symbol id="left-btn" viewBox="0 0 32 32">
<path fill="none" stroke="#fff" style="stroke: var(--color1, #fff)" stroke-linejoin="miter" stroke-linecap="butt" stroke-miterlimit="4" stroke-width="0.7619" d="M6.857 0.381h18.286c3.577 0 6.476 2.9 6.476 6.476v18.286c0 3.577-2.899 6.476-6.476 6.476h-18.286c-3.577 0-6.476-2.899-6.476-6.476v-18.286c0-3.577 2.9-6.476 6.476-6.476z"></path>
<path fill="none" stroke="#fff" style="stroke: var(--color1, #fff)" stroke-linejoin="round" stroke-linecap="round" stroke-miterlimit="4" stroke-width="0.7619" d="M18.286 20.571l-4.571-4.571 4.571-4.571"></path>
</symbol>
</defs>
</svg>


<svg xmlns="http://www.w3.org/2000/svg" width="42" height="42" fill="none">
  <rect width="41" height="41" x=".5" y=".5" stroke="#fff" stroke-opacity=".5" rx="8.5"/>
  <path stroke="#fff" stroke-linecap="round" stroke-linejoin="round" stroke-opacity=".5" d="m24 27-6-6 6-6"/>
</svg>